HIERARCHY
ROOT Hips
{
	OFFSET 0.000000 0.000000 0.000000
	CHANNELS 6 Xposition Yposition Zposition Zrotation Yrotation Xrotation 
	JOINT LHipJoint
	{
		OFFSET 0.000000 0.000000 0.000000
		CHANNELS 3 Zrotation Yrotation Xrotation
		JOINT LeftUpLeg
		{
			OFFSET 1.363060 -1.794630 0.839290
			CHANNELS 3 Zrotation Yrotation Xrotation
			JOINT LeftLeg
			{
				OFFSET 2.448110 -6.726130 0.000000
				CHANNELS 3 Zrotation Yrotation Xrotation
				JOINT LeftFoot
				{
					OFFSET 2.562200 -7.039590 0.000000
					CHANNELS 3 Zrotation Yrotation Xrotation
					JOINT LeftToeBase
					{
						OFFSET 0.157640 -0.433110 2.322550
						CHANNELS 3 Zrotation Yrotation Xrotation
						End Site
						{
							OFFSET 0.000000 0.000000 0.000000
						}
					}
				}
			}
		}
	}
	JOINT RHipJoint
	{
		OFFSET 0.000000 0.000000 0.000000
		CHANNELS 3 Zrotation Yrotation Xrotation
		JOINT RightUpLeg
		{
			OFFSET -1.305520 -1.794630 0.839290
			CHANNELS 3 Zrotation Yrotation Xrotation
			JOINT RightLeg
			{
				OFFSET -2.542530 -6.985550 0.000000
				CHANNELS 3 Zrotation Yrotation Xrotation
				JOINT RightFoot
				{
					OFFSET -2.568260 -7.056230 0.000000
					CHANNELS 3 Zrotation Yrotation Xrotation
					JOINT RightToeBase
					{
						OFFSET -0.164730 -0.452590 2.363150
						CHANNELS 3 Zrotation Yrotation Xrotation
						End Site
						{
							OFFSET 0.000000 0.000000 0.000000
						}
					}
				}
			}
		}
	}
}
MOTION
Frames: 16
Frame Time: 0.008333
4.011264 16.800971 1.409473 -178.579639 -80.219583 -170.468367 -10.905571 0.183506 2.551321 -5.645362 -1.788040 -41.895554 0.133090 2.676240 57.773775 3.300492 17.521671 -15.747322 177.773800 0.000000 -0.345400 7.541160 -2.087155 2.496277 18.109164 4.876658 -12.562318 2.854655 -0.170521 23.346474 -3.304822 -7.130333 -26.725983 -176.906099 0.000000 -7.295700
3.789196 16.892457 1.331100 175.782143 -80.217218 -164.884863 -10.619700 0.044436 2.678067 -6.692798 -2.286968 -41.428993 -0.136936 2.269781 52.989856 3.248990 16.938169 -14.823573 -1.863200 0.000001 -0.825999 7.728911 -2.191160 2.512528 16.907851 4.580038 -10.053998 2.799440 0.133194 19.584659 -3.119188 -7.101911 -24.915932 -177.274100 -0.000000 -6.463900
3.566757 16.978010 1.254088 170.795609 -80.189318 -160.011592 -10.275739 -0.044980 2.770607 -7.754118 -2.658116 -40.701741 -0.406163 1.846577 47.925996 3.139319 16.147069 -13.604137 -1.412900 -0.000000 -2.637801 8.039441 -2.312027 2.506572 15.723027 4.119757 -7.567539 2.714477 0.395622 15.923139 -2.900389 -7.000211 -22.958092 -177.679800 0.000000 -5.626700
3.344011 17.055827 1.180674 166.688735 -80.083246 -156.072964 -9.902285 -0.069604 2.842031 -8.780965 -2.872424 -39.761710 -0.686891 1.426665 42.647486 2.978601 15.223753 -12.130379 -0.912601 -0.000000 -4.959700 8.435491 -2.442509 2.465934 14.590154 3.479624 -5.137922 2.609319 0.612953 12.469384 -2.646483 -6.756398 -20.900934 -178.111400 0.000000 -4.715300
3.121031 17.124336 1.113066 163.607076 -79.873861 -153.204593 -9.541442 -0.038982 2.905491 -9.720470 -2.916236 -38.675548 -0.988453 1.019610 37.242994 2.778555 14.248109 -10.478170 -0.403500 -0.000000 -7.592100 8.858819 -2.582521 2.381235 13.537794 2.658195 -2.802071 2.502056 0.783859 9.305451 -2.356773 -6.312898 -18.787447 -178.550100 0.000000 -3.627100
2.897580 17.182524 1.053046 161.604832 -79.563894 -151.443288 -9.233033 0.020287 2.971165 -10.522301 -2.787648 -37.524116 -1.311251 0.624164 31.824085 2.553724 13.286554 -8.751619 0.076200 -0.000000 -10.295500 9.252660 -2.735999 2.253024 12.588138 1.676108 -0.594413 2.412404 0.910182 6.481481 -2.033196 -5.636569 -16.647226 -178.973300 -0.000000 -2.225000
2.673477 17.229772 1.001635 160.622623 -79.168052 -150.713838 -9.002268 0.078456 3.041465 -11.156699 -2.490012 -36.386798 -1.646324 0.234591 26.513696 2.318926 12.380775 -7.065231 0.496500 -0.000000 -12.857100 9.579729 -2.905264 2.086500 11.745389 0.558490 1.458603 2.354858 0.995034 4.021601 -1.678361 -4.710929 -14.485878 -179.358800 0.000000 -0.268300
2.448151 17.266025 0.959259 160.585053 -78.697154 -150.914467 -8.861729 0.112716 3.113929 -11.609841 -2.014378 -35.358638 -1.978373 -0.151833 21.443021 2.085546 11.531264 -5.530940 0.835700 -0.000000 -15.110799 9.816800 -3.089596 1.899759 11.016476 -0.630394 3.332402 2.336088 1.044347 1.927926 -1.302500 -3.560060 -12.300047 0.317100 0.000000 -2.410800
2.221307 17.291661 0.925482 161.330283 -78.156466 -151.869165 -8.806949 0.112987 3.179881 -11.906630 -1.345909 -34.514030 -2.292725 -0.532665 16.728024 1.859535 10.705539 -4.234789 1.080300 -0.000000 -16.988000 9.963609 -3.286151 1.708366 10.385279 -1.843257 5.010913 2.354762 1.061076 0.194564 -0.914701 -2.211660 -10.058786 0.072800 -0.000000 -6.165600
1.992591 17.307388 0.899420 162.688778 -77.536237 -153.387017 -8.823893 0.080836 3.225688 -12.094272 -0.462411 -33.920235 -2.580297 -0.898723 12.463490 1.641114 9.843788 -3.230748 1.222300 0.000001 -18.482301 10.027980 -3.483726 1.524874 9.833644 -3.019628 6.481703 2.404330 1.050089 -1.189023 -0.529314 -0.710188 -7.762719 -0.070801 -0.000000 -10.994100
1.761869 17.314229 0.879864 164.454625 -76.858819 -155.267307 -8.889440 0.022975 3.248154 -12.233055 0.640325 -33.611387 -2.838973 -1.242931 8.719535 1.425143 8.878700 -2.532740 1.261901 0.000000 -19.652500 10.032987 -3.684723 1.370605 9.344511 -4.116929 7.740276 2.475055 1.013148 -2.237232 -0.161723 0.892129 -5.430185 -0.097500 -0.000000 -16.809500
1.528970 17.313398 0.865449 166.440386 -76.144664 -157.319107 -8.980100 -0.051953 3.247970 -12.372967 1.927031 -33.599951 -3.072028 -1.557576 5.532748 1.208522 7.773990 -2.122465 1.210500 0.000000 -20.581800 9.998598 -3.884717 1.256826 8.906985 -5.092840 8.787077 2.556625 0.954842 -2.962704 0.171889 2.536167 -3.136036 0.000200 -0.000000 -23.005000
1.293874 17.306139 0.854964 168.492518 -75.425244 -159.386135 -9.076214 -0.137165 3.234608 -12.536028 3.313743 -33.872159 -3.282530 -1.837149 2.914295 0.993534 6.542609 -1.964223 1.090400 -0.000000 -21.340700 9.939708 -4.078949 1.188892 8.523445 -5.909518 9.630228 2.639916 0.880838 -3.376966 0.458004 4.151070 -0.988844 0.210600 -0.000001 -28.804900
1.057049 17.293670 0.847181 170.478701 -74.738593 -161.339473 -9.163270 -0.227829 3.228715 -12.704273 4.652732 -34.368486 -3.467345 -2.080375 0.830195 0.792453 5.278917 -2.005160 0.936600 0.000000 -21.981800 9.869073 -4.264741 1.161776 8.192458 -6.556605 10.282509 2.716112 0.792616 -3.496039 0.690595 5.662598 0.961891 0.505000 -0.000000 -33.984100
0.818797 17.277054 0.841022 172.327841 -74.125467 -163.111951 -9.235923 -0.319400 3.248739 -12.836518 5.806112 -35.017532 -3.620556 -2.284912 -0.746924 0.618349 4.088503 -2.204541 0.778700 0.000000 -22.505500 9.791976 -4.439517 1.167234 7.924154 -7.029108 10.769455 2.779411 0.692891 -3.341117 0.867496 6.990204 2.659803 0.841200 0.000000 -38.232301
0.579815 17.257229 0.835475 173.994095 -73.622640 -164.671226 -9.294294 -0.406715 3.307270 -12.884566 6.659356 -35.733882 -3.734883 -2.447781 -1.845502 0.483488 3.076650 -2.528821 0.638900 -0.000000 -22.891999 9.711974 -4.601502 1.191879 7.722018 -7.341780 11.126784 2.825154 0.582118 -2.940783 0.991397 8.062077 4.096390 1.174500 -0.000000 -41.648700
